<svg xmlns="http://www.w3.org/2000/svg" viewBox="0 0 297 90">
  <g fill="white">
	<path d="M34.14,29.3c-5-5.4-13-5-17.3-10.8a6.45,6.45,0,0,1,.9-7.5c3.7-3.4,10.8,0,10.8,0l2.3-8.8S24.54-.6,18.54.5c-5.3.9-9.8,4-11.7,9.1a15,15,0,0,0,3.9,16.2c-4.6,3-9,7.5-10.2,12.9A21.58,21.58,0,0,0,5,57.3c3.5,4.3,7.5,5.5,12.4,8.1s10.6,8.4,5.3,12.9-13.9.4-13.9.4l-2.3,9.1s9,2.9,16.7,1.2A15.69,15.69,0,0,0,35,76.7a14.7,14.7,0,0,0-5.8-14.8,19,19,0,0,0,5.1-3.4v3.6h8.9V25.3h-8.9Zm-15.7,25a10.79,10.79,0,1,1,12.1-12.1A10.82,10.82,0,0,1,18.44,54.3Z"/>
	<path d="M66.64,10.2l-2.8-1c-1.5-.6-3.4-1.8-3.4-3.7a2.65,2.65,0,0,1,1-2.3,7.49,7.49,0,0,1,3.1-.5,14.78,14.78,0,0,1,3.8.4,17.73,17.73,0,0,1,.5,3.2,2,2,0,0,0,1.7.1,19.47,19.47,0,0,0,.7-5A19.63,19.63,0,0,0,64.84.2c-3.4,0-7.5,1.6-7.5,6.3,0,3.3,3.2,4.8,5.6,5.7l2.4.9c1.7.6,3.3,1.9,3.3,3.6a5,5,0,0,1-1.1,3.4,6.31,6.31,0,0,1-3.2.8,14,14,0,0,1-4.5-.6,33.5,33.5,0,0,1-.5-4,2.5,2.5,0,0,0-1.7-.1,27,27,0,0,0-.8,5.7,16.22,16.22,0,0,0,7.3,1.5,7.19,7.19,0,0,0,7.6-7.4C71.84,12.8,69.14,11.1,66.64,10.2Z"/>
	<path d="M79.94,22.9a11.15,11.15,0,0,0,3.1-.5l4.8-13.2a6,6,0,0,0,1.9-.6,2.62,2.62,0,0,0-.2-1.5c-.9,0-1.8.1-2.5.1-1.4,0-2.7-.1-3.7-.1a6.8,6.8,0,0,0-.2,1.5l2.5.5-4.2,11.7h0l-.1-2.4L78,9.3l2.5-.6a2.62,2.62,0,0,0-.2-1.5c-1.2,0-2.6.1-3.8.1s-2.3-.1-3.2-.1a6.8,6.8,0,0,0-.2,1.5,4.78,4.78,0,0,1,1.8.6Z"/>
	<path d="M97.54,23.2c2.1,0,4.8-1.4,6.4-2.4a1.43,1.43,0,0,0-.6-1.2,14.68,14.68,0,0,1-5.2,1.2c-3.2,0-4.3-3.2-4.5-5.9h3.8c2.5,0,4.6,0,6,.1l.3-.3a10.31,10.31,0,0,0,.2-2c0-2.9-1.3-5.9-5.9-5.9-4.2,0-7.1,4.4-7.1,8.4C90.84,19.7,92.74,23.2,97.54,23.2ZM95.24,9.6a4,4,0,0,1,2.2-.6c2.9,0,3.4,2,3.4,4.2-.8.1-2.3.1-4,.1h-3.2A6.35,6.35,0,0,1,95.24,9.6Z"/>
	<path d="M115.74,22.8a6.05,6.05,0,0,0,.2-1.5,16.86,16.86,0,0,0-3.9-.6,20.08,20.08,0,0,1-.1-2.5V11.8c1.4-2.2,2.4-2.6,3.7-2.6a2.48,2.48,0,0,1,.9.1c.2,1,.3,2.5.4,3.7a2.48,2.48,0,0,0,1.7,0,24.32,24.32,0,0,0,.6-5.7,7.32,7.32,0,0,0-2.7-.4c-2,0-3.6,1.5-4.6,3.1a21.1,21.1,0,0,0-.6-2.9l-.3-.2a18.93,18.93,0,0,0-4.7,1.2,2.88,2.88,0,0,0,.1,1.3,23.81,23.81,0,0,1,2.6.5v9a10.87,10.87,0,0,1-.1,1.8,16.65,16.65,0,0,1-2.6.6,6.05,6.05,0,0,0,.2,1.5c1.3,0,2.6-.1,4-.1C111.74,22.7,114.54,22.8,115.74,22.8Z"/>
	<path d="M124.84,4.3a2.58,2.58,0,0,0,2.3-2.5,2,2,0,0,0-2-1.8,2.6,2.6,0,0,0-2.3,2.6A2,2,0,0,0,124.84,4.3Z"/>
	<path d="M123.84,20.7a16.65,16.65,0,0,1-2.6.6,6.05,6.05,0,0,0,.2,1.5c1.3,0,2.6-.1,4-.1.8,0,2.8,0,3.7.1a6.05,6.05,0,0,0,.2-1.5,8.34,8.34,0,0,0-2.5-.6,20.08,20.08,0,0,1-.1-2.5V16.6c0-3.6,0-6.2.1-9.5l-.3-.3a25.41,25.41,0,0,0-5.4,1.2,2.88,2.88,0,0,0,.1,1.3,23.81,23.81,0,0,1,2.6.5v9.1A5.43,5.43,0,0,1,123.84,20.7Z"/>
	<path d="M130.24,26.9c0,2.2,2.2,4.6,6.2,4.6,5.4,0,8.9-2.3,8.9-6.9,0-2.2-2.1-3.9-6.4-3.9-1,0-3,0-3.2-.3a2,2,0,0,1-.1-.9,4.29,4.29,0,0,1,.4-1.4h.7c4.6,0,6.7-3.1,6.7-6.1a4.72,4.72,0,0,0-1.1-3.3,33,33,0,0,0,3.8-1.3,3.1,3.1,0,0,0-1.2-2.3,12.53,12.53,0,0,0-3.8,2.5,6.4,6.4,0,0,0-3.6-.9,6.09,6.09,0,0,0-6.5,6.1c0,2.7,1.4,4.4,3.6,4.9a5.25,5.25,0,0,0-1.5,3.1,2,2,0,0,0,.4,1.3C131.94,23.3,130.24,24.9,130.24,26.9Zm3.4-14.7a3.91,3.91,0,0,1,1.3-2.8A5.18,5.18,0,0,1,137,9a3.69,3.69,0,0,1,3.8,3.6,3.85,3.85,0,0,1-1.3,3,5.92,5.92,0,0,1-2.3.4C135,16.1,133.64,14.4,133.64,12.2Zm.9,10.7a14.55,14.55,0,0,0,3.7.4c3.2,0,4.3.8,4.3,2.3a3.84,3.84,0,0,1-.9,2.7,8.43,8.43,0,0,1-4.4,1c-3.5,0-4.3-1.8-4.3-3.1A6,6,0,0,1,134.54,22.9Z"/>
	<path d="M153.34,23.2c2.1,0,4.8-1.4,6.4-2.4a1.43,1.43,0,0,0-.6-1.2,14.68,14.68,0,0,1-5.2,1.2c-3.2,0-4.3-3.2-4.5-5.9h3.8c2.5,0,4.6,0,6,.1l.3-.3a10.31,10.31,0,0,0,.2-2c0-2.9-1.3-5.9-5.9-5.9-4.2,0-7.1,4.4-7.1,8.4C146.64,19.7,148.64,23.2,153.34,23.2ZM151,9.6a4,4,0,0,1,2.2-.6c2.9,0,3.4,2,3.4,4.2-.8.1-2.3.1-4,.1h-3.2A8,8,0,0,1,151,9.6Z"/>
	<path d="M167.94,21.2a8.13,8.13,0,0,1-3-.5,18.41,18.41,0,0,1-.3-3.3,2.2,2.2,0,0,0-1.6,0,19.73,19.73,0,0,0-.6,4.8,13.32,13.32,0,0,0,5.1.9c3.4,0,6.1-1.8,6.1-4.9,0-5.3-8-4.2-8-7.6,0-1.2.2-1.9,2.9-1.9a10.53,10.53,0,0,1,2.1.3,10.86,10.86,0,0,1,.4,2.5,3.22,3.22,0,0,0,1.7.1,15.47,15.47,0,0,0,.6-4.1,16.76,16.76,0,0,0-4.7-.6c-2.7,0-5.7,1.1-5.7,4.4,0,3.5,3.8,3.9,6.3,5.1a2.56,2.56,0,0,1,1.7,2.3C170.84,20.7,170,21.2,167.94,21.2Z"/>
	<path d="M68.74,59.3a19.66,19.66,0,0,1-.2-2.6V50.5c0-4.5-3.3-5.2-5.2-5.2a11.07,11.07,0,0,0-5.9,1.7,8.17,8.17,0,0,0,.8,3.5,2.54,2.54,0,0,0,1.9-.2,12.29,12.29,0,0,1,.2-2.7,11.53,11.53,0,0,1,2.6-.3c2.2,0,2.8,1.7,2.8,4.2-4.2.8-9,2.5-9,6.2a3.63,3.63,0,0,0,3.7,3.9,9.25,9.25,0,0,0,5.4-2.6c.3,1.5,1,2.6,1.6,2.6a6.84,6.84,0,0,0,3.8-1.7,1.66,1.66,0,0,0-.5-1.2A5.87,5.87,0,0,1,68.74,59.3Zm-3-1.9a6.61,6.61,0,0,1-3.6,1.7,2.19,2.19,0,0,1-2.5-2.2,3.22,3.22,0,0,1,.7-2c.4-.4,2.8-1.1,5.4-1.4Z"/>
	<path d="M86.54,59.3a19.66,19.66,0,0,1-.2-2.6v-11c0-3.6,0-6.2.1-9.5l-.3-.3a29.58,29.58,0,0,0-5.8,1.2,2.88,2.88,0,0,0,.1,1.3c1,.1,2,.3,3,.5v7.6a8.1,8.1,0,0,0-3.6-1.2c-3.7,0-7.1,3.7-7.1,8.4,0,4.4,1.9,7.9,5.8,7.9,1.8,0,3.6-1.5,5-3,.3,1.5.9,3,1.7,3A6.84,6.84,0,0,0,89,59.9a1.66,1.66,0,0,0-.5-1.2A5.87,5.87,0,0,1,86.54,59.3Zm-3-2.5c-1.3,1.2-3.1,2.5-4.2,2.5-2.5,0-3.7-3.2-3.7-6.5a7.07,7.07,0,0,1,1.6-4.6,4.14,4.14,0,0,1,2.3-.6,12.36,12.36,0,0,1,4,.8Z"/>
	<path d="M103.44,45.7c-1.4,0-2.7-.1-3.7-.1a6.8,6.8,0,0,0-.2,1.5l2.5.5-4.1,11.5h0l-.1-2.4-3.3-9.1L97,47a2.62,2.62,0,0,0-.2-1.5c-1.2,0-2.6.1-3.8.1s-2.3-.1-3.2-.1a6.8,6.8,0,0,0-.2,1.5,4.78,4.78,0,0,1,1.8.6l5,13.6a11.15,11.15,0,0,0,3.1-.5l4.8-13.2a6,6,0,0,0,1.9-.6,2.62,2.62,0,0,0-.2-1.5A8.32,8.32,0,0,1,103.44,45.7Z"/>
	<path d="M114.64,45.2c-4.6,0-7.3,4.5-7.3,8.5,0,4.6,2.3,7.9,7,7.9s7.3-4.5,7.3-8.5C121.54,48.7,119.34,45.2,114.64,45.2Zm2.5,13.6a4.14,4.14,0,0,1-2.3.6c-3.5,0-4.7-3.9-4.7-6.7a7.15,7.15,0,0,1,1.6-4.7,4.14,4.14,0,0,1,2.3-.6c3.5,0,4.7,3.9,4.7,6.7A7.15,7.15,0,0,1,117.14,58.8Z"/>
	<path d="M139.24,59.6a3.19,3.19,0,0,1-2.7-1.4,37.91,37.91,0,0,1-3.7-5.9l4.2-4.5a9,9,0,0,0,2.2-.6,6.05,6.05,0,0,0-.2-1.5c-1,0-2,.1-2.8.1-1.5,0-3-.1-4-.1a6.8,6.8,0,0,0-.2,1.5l2,.5-3,3.7a17.79,17.79,0,0,1-2.7,1.2V45.8c0-3.6,0-6.2.1-9.5l-.3-.3a25.41,25.41,0,0,0-5.4,1.2,2.88,2.88,0,0,0,.1,1.3,20,20,0,0,1,2.6.5V57.4a10.87,10.87,0,0,1-.1,1.8,16.65,16.65,0,0,1-2.6.6,6.05,6.05,0,0,0,.2,1.5c1.3,0,2.6-.1,4-.1.8,0,2.8,0,3.7.1a6.05,6.05,0,0,0,.2-1.5,8.34,8.34,0,0,0-2.5-.6,20.08,20.08,0,0,1-.1-2.5V54.3l2.4-.7c1.3,3.9,3.4,7.9,5.7,7.9a12.86,12.86,0,0,0,4.1-.8,1.57,1.57,0,0,0-.4-1.3A1.55,1.55,0,0,1,139.24,59.6Z"/>
	<path d="M154.34,59.3a19.66,19.66,0,0,1-.2-2.6V50.5c0-4.5-3.3-5.2-5.2-5.2A11.07,11.07,0,0,0,143,47a8.17,8.17,0,0,0,.8,3.5,2.54,2.54,0,0,0,1.9-.2,12.29,12.29,0,0,1,.2-2.7,11.53,11.53,0,0,1,2.6-.3c2.2,0,2.8,1.7,2.8,4.2-4.2.8-9,2.5-9,6.2a3.63,3.63,0,0,0,3.7,3.9,9.25,9.25,0,0,0,5.4-2.6c.3,1.5,1,2.6,1.6,2.6a6.84,6.84,0,0,0,3.8-1.7,1.66,1.66,0,0,0-.5-1.2A5.87,5.87,0,0,1,154.34,59.3Zm-2.9-1.9a6.61,6.61,0,0,1-3.6,1.7,2.19,2.19,0,0,1-2.5-2.2,3.22,3.22,0,0,1,.7-2c.4-.4,2.8-1.1,5.4-1.4v3.9Z"/>
	<path d="M164.24,59.3c-1.1,0-1.6-1.2-1.6-3.6v-8h5a13.4,13.4,0,0,0,.1-2l-5.1-.1V41.2a5.24,5.24,0,0,0-1.7-.2l-1.1,4.5a18.66,18.66,0,0,0-2.5.4,2,2,0,0,0,.1,1.3c.9.1,1.8.3,2.5.4v9.2c0,3,.8,4.7,3,4.7A11.33,11.33,0,0,0,168,60a2,2,0,0,0-.6-1.5A6.59,6.59,0,0,1,164.24,59.3Z"/>
	<path d="M173.24,49c0-1.2.2-1.9,2.9-1.9a10.53,10.53,0,0,1,2.1.3,10.86,10.86,0,0,1,.4,2.5,3.22,3.22,0,0,0,1.7.1,15.47,15.47,0,0,0,.6-4.1,16.76,16.76,0,0,0-4.7-.6c-2.7,0-5.7,1.1-5.7,4.4,0,3.5,3.8,3.9,6.3,5.1a2.56,2.56,0,0,1,1.7,2.3c0,1.9-.8,2.4-2.9,2.4a8.13,8.13,0,0,1-3-.5,18.41,18.41,0,0,1-.3-3.3,2.2,2.2,0,0,0-1.6,0,19.73,19.73,0,0,0-.6,4.8,13.32,13.32,0,0,0,5.1.9c3.4,0,6.1-1.8,6.1-4.9C181.34,51.3,173.24,52.4,173.24,49Z"/>
	<path d="M195.74,59.3a19.66,19.66,0,0,1-.2-2.6V50.5c0-4.5-3.3-5.2-5.2-5.2a11.07,11.07,0,0,0-5.9,1.7,8.17,8.17,0,0,0,.8,3.5,2.54,2.54,0,0,0,1.9-.2,12.29,12.29,0,0,1,.2-2.7,11.53,11.53,0,0,1,2.6-.3c2.2,0,2.8,1.7,2.8,4.2-4.2.8-9,2.5-9,6.2a3.63,3.63,0,0,0,3.7,3.9,9.25,9.25,0,0,0,5.4-2.6c.3,1.5,1,2.6,1.6,2.6a6.84,6.84,0,0,0,3.8-1.7,1.66,1.66,0,0,0-.5-1.2A5.87,5.87,0,0,1,195.74,59.3Zm-2.9-1.9a6.61,6.61,0,0,1-3.6,1.7,2.19,2.19,0,0,1-2.5-2.2,3.22,3.22,0,0,1,.7-2c.4-.4,2.8-1.1,5.4-1.4v3.9Z"/>
	<path d="M224.54,56.7V50.5c0-3.7-1.5-5.3-4.4-5.3a7.33,7.33,0,0,0-5.3,2.6,3.87,3.87,0,0,0-4-2.6,7.46,7.46,0,0,0-5,2.2c-.2-.7-.3-1.5-.4-1.9l-.3-.2a18.93,18.93,0,0,0-4.7,1.2,2.88,2.88,0,0,0,.1,1.3,23.81,23.81,0,0,1,2.6.5v9a10.87,10.87,0,0,1-.1,1.8,16.65,16.65,0,0,1-2.6.6,6.05,6.05,0,0,0,.2,1.5c1.3,0,2.6-.1,4-.1.8,0,2.8,0,3.7.1a6.05,6.05,0,0,0,.2-1.5,8.34,8.34,0,0,0-2.5-.6,20.08,20.08,0,0,1-.1-2.5V48.8a6.86,6.86,0,0,1,3.7-1.4c2.6,0,2.9,1.8,2.9,4.3v5.5a10.87,10.87,0,0,1-.1,1.8c-.7.2-1.4.4-2.3.6a3.34,3.34,0,0,0,.3,1.5c.9,0,2.3-.1,3.7-.1.8,0,2.5,0,3.4.1a6.05,6.05,0,0,0,.2-1.5,6.46,6.46,0,0,0-2.1-.6c0-.8-.1-1.6-.1-2.5V50.3a6.62,6.62,0,0,0-.1-1.5,7.27,7.27,0,0,1,3.8-1.5c2.6,0,2.9,1.8,2.9,4.3v5.5a10.87,10.87,0,0,1-.1,1.8,16.65,16.65,0,0,1-2.6.6,6.05,6.05,0,0,0,.2,1.5c1.3,0,2.6-.1,4-.1.8,0,2.8,0,3.7.1a3.42,3.42,0,0,0,.2-1.5,8.34,8.34,0,0,0-2.5-.6A3,3,0,0,1,224.54,56.7Z"/>
	<path d="M241.94,41.2a13.49,13.49,0,0,0,.7-4.4,11.37,11.37,0,0,0-4.3-.8c-4,0-6.5,3.7-6.5,9.3v.3a16.37,16.37,0,0,0-2.5.4,2,2,0,0,0,.1,1.3c.9.1,1.9.3,2.5.4v9.6a10.87,10.87,0,0,1-.1,1.8,16.65,16.65,0,0,1-2.6.6,6.05,6.05,0,0,0,.2,1.5c1.4,0,2.6-.1,4-.1s3.3,0,5.1.1a6.05,6.05,0,0,0,.2-1.5,21.32,21.32,0,0,0-3.9-.6,20.08,20.08,0,0,1-.1-2.5v-9h3.9a13.4,13.4,0,0,0,.1-2l-4-.1V44.4c0-2.9.5-5.1,1.2-5.9a3.84,3.84,0,0,1,2.2-.6,8.81,8.81,0,0,1,1.7.2,26.6,26.6,0,0,1,.3,2.8A1.63,1.63,0,0,0,241.94,41.2Z"/>
	<path d="M255.94,59.3a19.66,19.66,0,0,1-.2-2.6V55.5c0-3.6,0-6.2.1-9.5l-.3-.3h-1.2c-1.4,0-2.5,0-3.8-.1a7.72,7.72,0,0,0-.2,1.5,11.07,11.07,0,0,1,2.6.7v8.8c-.9.9-3.1,2.6-4.5,2.6-1.9,0-2.6-1.6-2.6-4.2,0-2,0-5.8.1-9l-.3-.3h-1.1c-1.4,0-2.5,0-3.8-.1a7.72,7.72,0,0,0-.2,1.5,12.55,12.55,0,0,1,2.6.7v8.4c0,3.7,1.6,5.4,4.5,5.4,2.2,0,3.8-1.5,5.4-3.2.2,1.5.9,3.2,1.6,3.2a6.56,6.56,0,0,0,3.8-1.7,1.66,1.66,0,0,0-.5-1.2A5.25,5.25,0,0,1,255.94,59.3Z"/>
	<path d="M276.24,56.7V50.5c0-3.7-1.6-5.3-4.6-5.3a9,9,0,0,0-5.5,2.2c-.1-.7-.3-1.5-.4-1.9l-.3-.2a18.93,18.93,0,0,0-4.7,1.2,2.88,2.88,0,0,0,.1,1.3,23.81,23.81,0,0,1,2.6.5v9a10.87,10.87,0,0,1-.1,1.8,16.65,16.65,0,0,1-2.6.6,6.05,6.05,0,0,0,.2,1.5c1.3,0,2.6-.1,4-.1.8,0,2.8,0,3.7.1a6.05,6.05,0,0,0,.2-1.5,8.34,8.34,0,0,0-2.5-.6,20.08,20.08,0,0,1-.1-2.5V48.9a7.2,7.2,0,0,1,4.2-1.5c2.6,0,3,1.8,3,4.3v5.5a10.87,10.87,0,0,1-.1,1.8,16.65,16.65,0,0,1-2.6.6,6.05,6.05,0,0,0,.2,1.5c1.3,0,2.7-.1,4-.1.8,0,2.8,0,3.7.1a3.42,3.42,0,0,0,.2-1.5,8.34,8.34,0,0,0-2.5-.6A15.52,15.52,0,0,1,276.24,56.7Z"/>
	<path d="M296,58.8a12.91,12.91,0,0,1-2.1.5,19.66,19.66,0,0,1-.2-2.6v-11c0-3.6,0-6.2.1-9.5l-.3-.3a29.58,29.58,0,0,0-5.8,1.2,2.88,2.88,0,0,0,.1,1.3c1,.1,2,.3,3,.5v7.6a8.1,8.1,0,0,0-3.6-1.2c-3.7,0-7.1,3.7-7.1,8.4,0,4.4,1.9,7.9,5.8,7.9,1.8,0,3.6-1.5,5-3,.3,1.5.9,3,1.7,3a6.84,6.84,0,0,0,3.8-1.7A1.19,1.19,0,0,0,296,58.8Zm-5-2c-1.3,1.2-3.1,2.5-4.2,2.5-2.5,0-3.7-3.2-3.7-6.5a7.07,7.07,0,0,1,1.6-4.6,4.14,4.14,0,0,1,2.3-.6,12.36,12.36,0,0,1,4,.8v8.4Z"/>
  </g>
</svg>